<svg xmlns="http://www.w3.org/2000/svg" xmlns:xlink="http://www.w3.org/1999/xlink" version="1.1" x="0px" y="0px" viewBox="0 0 100 125" style="enable-background:new 0 0 100 100;" xml:space="preserve"><g><path d="M71.1542969,34.1923027c-0.8330078-0.2594604-1.6929321-0.2913208-2.5289917-0.1495361l0.8590698-2.7576923   c0.8950195-2.8740234-0.7143555-5.9404297-3.5878906-6.8349609c-0.9346924-0.291687-1.9042969-0.3049316-2.8334961-0.0915527   c0.0328369-2.3551636-1.4712524-4.555542-3.831543-5.2902832c-1.3925781-0.4335938-2.8701172-0.2998047-4.1611328,0.3779297   c-0.81427,0.4274292-1.4718628,1.0544434-1.9707031,1.7969971c-0.6411743-0.6943359-1.4398193-1.2284546-2.3666992-1.5177002   c-2.875-0.8925781-5.9399414,0.7158203-6.8349609,3.5888672l-4.5284424,14.5372334   c-0.9742432-1.4386597-2.4190674-2.5722656-4.2030029-3.1280518c-1.5649414-0.4873047-3.2363281,0.3896484-3.7241211,1.9550781   l-6.0429688,19.3984375c-0.8884888,2.8519897-4.338562,17.3809166,14.9983521,23.4103966   c0.0038452,0.0012207,0.0070801,0.003418,0.0109253,0.0046387c3.7807617,1.1767578,6.9975586,1.6904297,9.7485352,1.6894531   c12.0756836,0,15.1572266-9.8886719,17.3320312-16.8701172l7.2529297-23.2841759   C75.637207,38.1532402,74.027832,35.086834,71.1542969,34.1923027z M71.8779297,40.1346855L64.625,63.4188652   c-3.2939453,10.5742149-7.1064453,18.2617149-23.3237305,13.208004c-0.0024414-0.0007324-0.0048828-0.0007324-0.0073242-0.0014648   c-16.1982422-5.0499878-14.0691528-16.3213463-13.0302734-19.6557579l6.0102539-19.3828125   c2.6016846,0.8112793,4.0593872,3.5860596,3.2505493,6.1878662l-2.3228149,7.456665   c-0.2329102,0.7470703,0.1526489,1.5321045,0.8616943,1.8250732c0.0390015,0.0164185,0.0748901,0.0375977,0.1158447,0.0509033   c0.2797852,0.0908203,6.8408203,2.3339844,5.5869141,11.5068321c-0.1118164,0.8203125,0.4624023,1.5771484,1.2832031,1.6894531   c0.8154297,0.1064453,1.5766602-0.4619141,1.6894531-1.2832031c1.2177734-8.9091148-3.7630005-12.7859459-6.2816772-14.1522789   l0.4912109-1.5767822l1.4398804-4.621521c0.0004883-0.0016479,0.0007935-0.0033569,0.0012817-0.0050049l6.3727417-20.4578876   c0.402832-1.2939453,1.7836914-2.0195312,3.0786133-1.6171875c0.6269531,0.1962891,1.140625,0.6240234,1.4458008,1.2050781   c0.3051758,0.5820312,0.3657227,1.2470703,0.1704102,1.8740234L46.1533203,42.696209   c-0.0616455,0.1977539-0.0802612,0.3986206-0.0611572,0.5925293c0.057312,0.5817871,0.4541016,1.1010742,1.0469971,1.286377   c0.083374,0.0258179,0.1672363,0.039917,0.2509155,0.0509033c0.7112427,0.0957642,1.4068604-0.3294678,1.6275024-1.0372314   l6.2426758-20.040041c0.1953125-0.6279297,0.6230469-1.140625,1.2045898-1.4462891   c0.5805664-0.3046875,1.2475586-0.3671875,1.8740234-0.1708984c1.2944336,0.4033203,2.0195312,1.7851562,1.6162109,3.0791016   l-6.2426758,20.040041c-0.246582,0.7910156,0.1953125,1.6318359,0.9858398,1.8779297   c0.0064087,0.0020142,0.0127563,0.0010376,0.019165,0.0029297c0.0088501,0.0029297,0.0163574,0.0079346,0.0252686,0.0107422   c0.7919922,0.25,1.6318359-0.1943359,1.878418-0.9853516L61.925293,28.930582   c0.1953125-0.6279297,0.6230469-1.140625,1.2045898-1.4462891c0.5810547-0.3056641,1.2480469-0.3671875,1.8740234-0.1708984   c1.2944336,0.4033203,2.0195312,1.7851562,1.6162109,3.0791016l-6.6430664,21.3251972   c-0.246582,0.7910156,0.1953125,1.6318359,0.9858398,1.8779297c0.1489258,0.046875,0.2988281,0.0683594,0.4467773,0.0683594   c0.6391602,0,1.2314453-0.4111328,1.4316406-1.0537109l0.9437256-3.0294189   c0.0004272-0.0013428,0.0011597-0.0024414,0.0015869-0.0037842l3.3964844-10.9042969   c0.1953125-0.6269531,0.6230469-1.140625,1.2045898-1.4462891s1.2475586-0.3671875,1.8740234-0.1708984   C71.5561523,37.4589043,72.28125,38.8407402,71.8779297,40.1346855z"/><path d="M29.3652344,25.3876133c0.6865234-0.4589844,0.8720703-1.3867188,0.4150391-2.0761719   c-0.4570312-0.6884766-1.3891602-0.8759766-2.0791016-0.4199219C27.4394531,23.0653477,21.25,27.2792149,17.6879883,38.7147636   c-3.5625,11.4365234-0.8608398,18.4189453-0.7441406,18.7109375c0.2348633,0.5859375,0.7978516,0.9423828,1.3930664,0.9423828   c0.1855469,0,0.3740234-0.0341797,0.5571289-0.1074219c0.769043-0.3076172,1.1425781-1.1806641,0.8349609-1.9501953   c-0.0244141-0.0615234-2.425293-6.2744141,0.8232422-16.703125C23.7597656,29.3085117,29.2714844,25.4520664,29.3652344,25.3876133   z"/><path d="M18.1591797,25.9178867c0.5214844-0.6445312,0.4223633-1.5888672-0.2216797-2.1103516   s-1.5888672-0.421875-2.109375,0.2216797c-2.6333008,3.2519531-4.7993164,7.4550781-6.2636719,12.1552753   c-1.4155273,4.5439453-2.0161133,8.9140625-1.7851562,12.9892578c0.0449219,0.7978516,0.706543,1.4150391,1.4960938,1.4150391   c0.0288086,0,0.0576172-0.0009766,0.0864258-0.0019531c0.8271484-0.046875,1.4594727-0.7558594,1.4125977-1.5830078   c-0.2104492-3.7148438,0.3461914-7.7275391,1.6542969-11.9267578   C14.1376953,31.5917149,16.4882812,27.9813633,18.1591797,25.9178867z"/><path d="M83.0561523,40.1346855c-0.3081055-0.7685547-1.1782227-1.1425781-1.9501953-0.8349609   c-0.769043,0.3076172-1.1425781,1.1806641-0.8349609,1.9501953c0.0244141,0.0615234,2.425293,6.2744141-0.8232422,16.703125   c-3.2075195,10.2988243-8.7192383,14.1552696-8.8129883,14.2197227c-0.6865234,0.4589844-0.8720703,1.3867188-0.4150391,2.0761719   c0.2885742,0.4345703,0.7651367,0.6699219,1.2509766,0.6699219c0.284668,0,0.5732422-0.0810547,0.828125-0.25   C72.5605469,74.4950333,78.75,70.2811661,82.3120117,58.845623C85.8745117,47.4090996,83.1728516,40.4266777,83.0561523,40.1346855   z"/><path d="M92.2207031,48.3866386c-0.046875-0.8271484-0.7705078-1.4414062-1.5825195-1.4130859   c-0.8271484,0.046875-1.4594727,0.7558594-1.4125977,1.5830078c0.2104492,3.7148438-0.3461914,7.7275391-1.6542969,11.9267578   c-1.7089844,5.4853477-4.0595703,9.0956993-5.7304688,11.1591759c-0.5214844,0.6445312-0.4223633,1.5888672,0.2216797,2.1103516   c0.277832,0.2246094,0.6113281,0.3339844,0.9428711,0.3339844c0.4370117,0,0.8701172-0.1904297,1.1665039-0.5556641   c2.6333008-3.2519531,4.7993164-7.4550781,6.2636719-12.1552696C91.8510742,56.8319511,92.4516602,52.461834,92.2207031,48.3866386   z"/></g><text x="0" y="115" fill="#000000" font-size="5px" font-weight="bold" font-family="'Helvetica Neue', Helvetica, Arial-Unicode, Arial, Sans-serif">Created by Dmitry Vasiliev</text><text x="0" y="120" fill="#000000" font-size="5px" font-weight="bold" font-family="'Helvetica Neue', Helvetica, Arial-Unicode, Arial, Sans-serif">from the Noun Project</text></svg>