<svg xmlns="http://www.w3.org/2000/svg" xmlns:xlink="http://www.w3.org/1999/xlink" version="1.1" x="0px" y="0px" viewBox="0 0 64 80" style="enable-background:new 0 0 64 64;" xml:space="preserve"><g><path d="M62,40.75c0-2.3515625-1.7207031-4.3193359-4-4.7724609v-1.0371094c0-1.8320313-0.7338867-3.546875-2.0595703-4.8242188   c-1.265625-1.2412109-2.9545898-1.9501953-4.7578125-1.9960938c-1.2924194-0.0197144-2.5307007,0.3226318-3.6308594,0.9727783   L6.3276367,1.6201172C5.8344727,1.2861328,5.2578125,1.1103516,4.6601563,1.1103516   c-1.0131836,0-1.9462891,0.5019531-2.4936523,1.3369141C1.2553711,3.8212891,1.6264648,5.6845703,2.9951172,6.6015625   l41.1183472,27.4058228C44.0458984,34.3980713,44,34.7895508,44,35.1796875v0.796875   c-0.9462891,0.1875-1.8208008,0.6386719-2.5322266,1.3212891C40.5209961,38.2314453,40,39.4570313,40,40.75v16.3701172   c0,0.0008545,0.0004883,0.0015869,0.0004883,0.0024414S40,57.1241455,40,57.125V61c0,0.5527344,0.4477539,1,1,1h20   c0.5522461,0,1-0.4472656,1-1v-3.875c0-0.0008545-0.0004883-0.0015869-0.0004883-0.0024414S62,57.1209717,62,57.1201172V40.75z    M3.8364258,3.5478516c0.1821289-0.2783203,0.4824219-0.4375,0.8237305-0.4375   c0.1376953,0,0.3447266,0.0292969,0.5488281,0.1669922C5.2109375,3.2792969,5.2133789,3.28125,5.215332,3.2822266   l40.6870117,27.1152344c-0.0721436,0.0776978-0.1307983,0.1664429-0.1993408,0.2471924   c-0.1082764,0.1275635-0.215271,0.255188-0.3143311,0.3898926c-0.0999146,0.1358032-0.1904297,0.2772217-0.2807007,0.4199219   c-0.0890503,0.1408081-0.177124,0.281189-0.2564087,0.4282227c-0.0281982,0.0522461-0.0643921,0.0994873-0.0913086,0.1524658   L4.1064453,4.9384766C3.6513672,4.6337891,3.5288086,4.0117188,3.8364258,3.5478516z M42,40.75   c0-0.7529297,0.3095703-1.4736328,0.8623047-2.0185547C43.4345703,38.1826172,44.1938477,37.8798828,45,37.8798828   c0.5522461,0,1-0.4472656,1-1v-1.7001953c0-0.4560547,0.0629883-0.9003906,0.1782227-1.3125l0.0395508-0.1181641   c0.0419922-0.1289063,0.0854492-0.2607422,0.1313477-0.3789063c0.3618164-0.9091797,0.9746094-1.6982422,1.7773438-2.2871094   c0.8808594-0.6533203,1.9316406-0.9882813,3.0083008-0.9628906c1.2929688,0.0322266,2.5019531,0.5380859,3.4116211,1.4296875   C55.4838867,32.453125,56,33.6572266,56,34.9404297v1.9394531c0,0.5527344,0.4477539,1,1,1c1.6542969,0,3,1.2871094,3,2.8701172   v15.3701172H42V40.75z M60,60H42v-1.875h18V60z"/><path d="M52.6489258,32.4980469l-0.1220703-0.078125C52.0834961,32.1455078,51.5556641,32,51,32   c-1.6542969,0-3,1.3193359-3,2.9404297V37c0,0.5527344,0.4477539,1,1,1h4c0.5522461,0,1-0.4472656,1-1v-2.0595703   c0-0.8017578-0.3208008-1.546875-0.8847656-2.0791016C52.9521484,32.6992188,52.7763672,32.5654297,52.6489258,32.4980469z M52,36   h-2v-1.0595703C50,34.421875,50.4487305,34,51,34c0.1806641,0,0.3486328,0.0419922,0.4609375,0.1113281l0.1665039,0.1044922   c0.0068359,0.0039063,0.0341797,0.0205078,0.0961914,0.0810547C51.8496094,34.4160156,52,34.625,52,34.9404297V36z"/><path d="M20,49h-7v-2h1c2.7568359,0,5-2.2431641,5-5v-2c0-0.5527344-0.4477539-1-1-1h-2   c-1.1299438,0-2.1617432,0.3909912-3,1.0255737V37h1c2.7568359,0,5-2.2431641,5-5v-2c0-0.5527344-0.4477539-1-1-1h-2   c-1.1299438,0-2.1617432,0.3909912-3,1.0255737V27h1c2.7568359,0,5-2.2431641,5-5v-2c0-0.5527344-0.4477539-1-1-1h-2   c-1.6412964,0-3.0877686,0.8057251-4,2.0309448C11.0877686,19.8057251,9.6412964,19,8,19H6c-0.5522461,0-1,0.4472656-1,1v2   c0,2.7568359,2.2431641,5,5,5h1v3.0255737C10.1617432,29.3909912,9.1299438,29,8,29H6c-0.5522461,0-1,0.4472656-1,1v2   c0,2.7568359,2.2431641,5,5,5h1v3.0255737C10.1617432,39.3909912,9.1299438,39,8,39H6c-0.5522461,0-1,0.4472656-1,1v2   c0,2.7568359,2.2431641,5,5,5h1v2H4c-0.5522461,0-1,0.4472656-1,1v4c0,0.5527344,0.4477539,1,1,1h1v2.6972656l-1.8320313,2.7480469   c-0.2045898,0.3066406-0.2236328,0.7011719-0.0498047,1.0263672C3.2924805,61.796875,3.6313477,62,4,62h16   c0.3686523,0,0.7075195-0.203125,0.8818359-0.5283203c0.1738281-0.3251953,0.1547852-0.7197266-0.0498047-1.0263672L19,57.6972656   V55h1c0.5522461,0,1-0.4472656,1-1v-4C21,49.4472656,20.5522461,49,20,49z M16,41h1v1c0,1.6542969-1.3457031,3-3,3h-1v-1   C13,42.3457031,14.3457031,41,16,41z M16,31h1v1c0,1.6542969-1.3457031,3-3,3h-1v-1C13,32.3457031,14.3457031,31,16,31z M16,21h1v1   c0,1.6542969-1.3457031,3-3,3h-1v-1C13,22.3457031,14.3457031,21,16,21z M7,22v-1h1c1.6542969,0,3,1.3457031,3,3v1h-1   C8.3457031,25,7,23.6542969,7,22z M7,32v-1h1c1.6542969,0,3,1.3457031,3,3v1h-1C8.3457031,35,7,33.6542969,7,32z M7,42v-1h1   c1.6542969,0,3,1.3457031,3,3v1h-1C8.3457031,45,7,43.6542969,7,42z M17.1679688,58.5546875L18.1313477,60H5.8686523   l0.9633789-1.4453125C6.9414063,58.390625,7,58.1972656,7,58v-3h10v3C17,58.1972656,17.0585938,58.390625,17.1679688,58.5546875z    M19,53h-1H6H5v-2h14V53z"/></g><text x="0" y="79" fill="#000000" font-size="5px" font-weight="bold" font-family="'Helvetica Neue', Helvetica, Arial-Unicode, Arial, Sans-serif">Created by Chaowalit  Koetchuea</text><text x="0" y="84" fill="#000000" font-size="5px" font-weight="bold" font-family="'Helvetica Neue', Helvetica, Arial-Unicode, Arial, Sans-serif">from the Noun Project</text></svg>